<?xml version="1.0" encoding="UTF-8" standalone="no"?><!DOCTYPE svg PUBLIC "-//W3C//DTD SVG 1.1//EN" "http://www.w3.org/Graphics/SVG/1.1/DTD/svg11.dtd"><svg width="100%" height="100%" viewBox="0 0 534 192" version="1.1" xmlns="http://www.w3.org/2000/svg" xmlns:xlink="http://www.w3.org/1999/xlink" xml:space="preserve" xmlns:serif="http://www.serif.com/" style="fill-rule:evenodd;clip-rule:evenodd;stroke-linejoin:round;stroke-miterlimit:2;"><rect id="Logo" x="0" y="0" width="533.333" height="191.667" style="fill:#009100;"/><path d="M80.942,126.82c-4.269,0 -8.089,-0.758 -11.46,-2.273c-3.372,-1.516 -6.017,-3.619 -7.934,-6.31c-1.918,-2.691 -2.908,-5.8 -2.97,-9.326l9.001,-0c0.31,3.031 1.562,5.583 3.758,7.655c2.197,2.073 5.398,3.109 9.605,3.109c4.021,-0 7.191,-1.005 9.511,-3.016c2.32,-2.01 3.48,-4.593 3.48,-7.748c-0,-2.475 -0.681,-4.485 -2.042,-6.032c-1.361,-1.546 -3.062,-2.722 -5.103,-3.526c-2.042,-0.804 -4.795,-1.67 -8.259,-2.598c-4.269,-1.114 -7.686,-2.227 -10.254,-3.341c-2.567,-1.113 -4.763,-2.861 -6.588,-5.243c-1.825,-2.381 -2.737,-5.583 -2.737,-9.604c-0,-3.526 0.897,-6.65 2.691,-9.372c1.794,-2.722 4.314,-4.825 7.562,-6.31c3.248,-1.484 6.975,-2.227 11.182,-2.227c6.062,0 11.027,1.516 14.893,4.547c3.867,3.031 6.047,7.052 6.542,12.063l-9.279,0c-0.309,-2.474 -1.609,-4.655 -3.898,-6.542c-2.288,-1.887 -5.32,-2.83 -9.093,-2.83c-3.526,0 -6.403,0.913 -8.63,2.737c-2.227,1.825 -3.341,4.377 -3.341,7.656c0,2.351 0.665,4.268 1.995,5.753c1.33,1.485 2.97,2.614 4.918,3.387c1.949,0.773 4.687,1.655 8.213,2.645c4.268,1.175 7.702,2.335 10.3,3.48c2.598,1.144 4.825,2.907 6.681,5.289c1.856,2.381 2.784,5.614 2.784,9.697c-0,3.155 -0.835,6.124 -2.506,8.908c-1.67,2.784 -4.144,5.042 -7.423,6.774c-3.279,1.732 -7.145,2.598 -11.599,2.598Z" style="fill:#fff;fill-rule:nonzero;"/><path d="M125.204,82.279l0,29.972c0,2.475 0.526,4.223 1.578,5.243c1.051,1.021 2.876,1.531 5.474,1.531l6.218,0l-0,7.145l-7.609,0c-4.702,0 -8.228,-1.082 -10.579,-3.247c-2.351,-2.165 -3.526,-5.723 -3.526,-10.672l-0,-29.972l-6.588,0l-0,-6.959l6.588,-0l-0,-12.806l8.444,0l0,12.806l13.27,-0l-0,6.959l-13.27,0Z" style="fill:#fff;fill-rule:nonzero;"/><path d="M151.372,126.727c-1.608,0 -2.969,-0.557 -4.083,-1.67c-1.113,-1.114 -1.67,-2.475 -1.67,-4.083c-0,-1.608 0.557,-2.969 1.67,-4.083c1.114,-1.113 2.475,-1.67 4.083,-1.67c1.547,-0 2.861,0.557 3.944,1.67c1.082,1.114 1.624,2.475 1.624,4.083c-0,1.608 -0.542,2.969 -1.624,4.083c-1.083,1.113 -2.397,1.67 -3.944,1.67Z" style="fill:#fff;fill-rule:nonzero;"/><path d="M217.163,80.238c-1.794,-3.774 -4.393,-6.697 -7.795,-8.769c-3.402,-2.073 -7.362,-3.109 -11.878,-3.109c-4.516,0 -8.583,1.036 -12.202,3.109c-3.619,2.072 -6.465,5.041 -8.537,8.908c-2.072,3.866 -3.109,8.336 -3.109,13.409c0,5.072 1.037,9.526 3.109,13.362c2.072,3.835 4.918,6.789 8.537,8.862c3.619,2.072 7.686,3.108 12.202,3.108c6.31,0 11.507,-1.887 15.59,-5.66c4.083,-3.774 6.464,-8.878 7.145,-15.311l-25.797,-0l0,-6.867l34.798,0l-0,6.496c-0.495,5.32 -2.165,10.191 -5.011,14.615c-2.846,4.423 -6.588,7.918 -11.228,10.485c-4.64,2.568 -9.805,3.851 -15.497,3.851c-6,0 -11.475,-1.407 -16.424,-4.222c-4.949,-2.815 -8.862,-6.727 -11.738,-11.738c-2.877,-5.011 -4.315,-10.672 -4.315,-16.981c-0,-6.31 1.438,-11.986 4.315,-17.028c2.876,-5.042 6.789,-8.97 11.738,-11.785c4.949,-2.815 10.424,-4.222 16.424,-4.222c6.867,-0 12.945,1.701 18.234,5.104c5.29,3.402 9.141,8.196 11.553,14.383l-10.114,-0Z" style="fill:#fff;fill-rule:nonzero;"/><path d="M237.206,100.559c0,-5.196 1.052,-9.758 3.155,-13.687c2.103,-3.928 4.995,-6.975 8.676,-9.14c3.681,-2.165 7.779,-3.248 12.295,-3.248c4.455,0 8.321,0.959 11.6,2.877c3.278,1.918 5.722,4.33 7.33,7.238l0,-9.279l8.537,-0l0,50.85l-8.537,0l0,-9.464c-1.67,2.969 -4.16,5.428 -7.47,7.377c-3.309,1.948 -7.16,2.923 -11.552,2.923c-4.516,-0 -8.599,-1.114 -12.249,-3.341c-3.65,-2.227 -6.527,-5.351 -8.63,-9.372c-2.103,-4.021 -3.155,-8.599 -3.155,-13.734Zm43.056,0.093c0,-3.835 -0.773,-7.176 -2.32,-10.021c-1.546,-2.846 -3.634,-5.027 -6.263,-6.542c-2.629,-1.516 -5.521,-2.274 -8.676,-2.274c-3.155,0 -6.032,0.742 -8.63,2.227c-2.598,1.485 -4.671,3.65 -6.217,6.496c-1.547,2.845 -2.32,6.186 -2.32,10.021c-0,3.898 0.773,7.285 2.32,10.161c1.546,2.877 3.619,5.073 6.217,6.589c2.598,1.515 5.475,2.273 8.63,2.273c3.155,0 6.047,-0.758 8.676,-2.273c2.629,-1.516 4.717,-3.712 6.263,-6.589c1.547,-2.876 2.32,-6.232 2.32,-10.068Z" style="fill:#fff;fill-rule:nonzero;"/><path d="M421.28,101.534c-0,-5.197 1.051,-9.759 3.155,-13.687c2.103,-3.929 4.995,-6.975 8.676,-9.14c3.681,-2.166 7.779,-3.248 12.295,-3.248c4.454,-0 8.32,0.959 11.599,2.876c3.279,1.918 5.722,4.331 7.331,7.238l-0,-9.279l8.537,-0l-0,50.851l-8.537,-0l-0,-9.465c-1.67,2.969 -4.16,5.428 -7.47,7.377c-3.31,1.949 -7.161,2.923 -11.553,2.923c-4.516,-0 -8.599,-1.114 -12.249,-3.341c-3.649,-2.227 -6.526,-5.351 -8.629,-9.372c-2.104,-4.021 -3.155,-8.599 -3.155,-13.733Zm43.056,0.093c-0,-3.836 -0.773,-7.176 -2.32,-10.022c-1.547,-2.846 -3.634,-5.026 -6.264,-6.542c-2.629,-1.516 -5.521,-2.274 -8.676,-2.274c-3.155,0 -6.031,0.743 -8.63,2.228c-2.598,1.484 -4.67,3.649 -6.217,6.495c-1.546,2.846 -2.32,6.186 -2.32,10.022c0,3.897 0.774,7.284 2.32,10.161c1.547,2.876 3.619,5.072 6.217,6.588c2.599,1.516 5.475,2.273 8.63,2.273c3.155,0 6.047,-0.757 8.676,-2.273c2.63,-1.516 4.717,-3.712 6.264,-6.588c1.547,-2.877 2.32,-6.233 2.32,-10.068Zm-23.106,-32.2c-1.361,0 -2.521,-0.464 -3.479,-1.392c-0.959,-0.928 -1.439,-2.072 -1.439,-3.433c0,-1.361 0.48,-2.521 1.439,-3.48c0.958,-0.959 2.118,-1.438 3.479,-1.438c1.299,-0 2.428,0.479 3.387,1.438c0.959,0.959 1.439,2.119 1.439,3.48c-0,1.361 -0.48,2.505 -1.439,3.433c-0.959,0.928 -2.088,1.392 -3.387,1.392Zm15.033,0c-1.361,0 -2.506,-0.464 -3.434,-1.392c-0.927,-0.928 -1.391,-2.072 -1.391,-3.433c-0,-1.361 0.464,-2.521 1.391,-3.48c0.928,-0.959 2.073,-1.438 3.434,-1.438c1.361,-0 2.521,0.479 3.48,1.438c0.958,0.959 1.438,2.119 1.438,3.48c-0,1.361 -0.48,2.505 -1.438,3.433c-0.959,0.928 -2.119,1.392 -3.48,1.392Z" style="fill:#fff;fill-rule:nonzero;"/><g><g><rect x="305.365" y="99.656" width="42.242" height="61.368" style="fill:#fff;"/><ellipse cx="326.444" cy="100.968" rx="21.124" ry="16.584" style="fill:#fff;"/><rect x="324.278" y="26.64" width="3.588" height="27.618" style="fill:#fff;"/><path d="M332.095,37.326l0.001,-3.587l-12.199,-0.005l-0.002,3.588l12.2,0.004Z" style="fill:#fff;"/><rect x="315.121" y="58.44" width="22.731" height="38.489" style="fill:#fff;"/><ellipse cx="326.487" cy="58.356" rx="11.354" ry="5.084" style="fill:#fff;"/></g><g><rect x="364.746" y="99.656" width="42.242" height="61.368" style="fill:#fff;"/><ellipse cx="385.825" cy="100.968" rx="21.124" ry="16.584" style="fill:#fff;"/><rect x="383.659" y="26.64" width="3.588" height="27.618" style="fill:#fff;"/><path d="M391.475,37.326l0.002,-3.587l-12.2,-0.005l-0.001,3.588l12.199,0.004Z" style="fill:#fff;"/><rect x="374.501" y="58.44" width="22.731" height="38.489" style="fill:#fff;"/><ellipse cx="385.868" cy="58.356" rx="11.354" ry="5.084" style="fill:#fff;"/></g><rect x="336.354" y="105.741" width="37.874" height="55.244" style="fill:#fff;"/></g></svg>